Coordinates
version=1
nRows=17
nColumns=40
inDegrees=yes

Units are S.I. units (second, meters, Newtons, ...)
Angles are in degrees.

endheader
time	pelvis_tilt	pelvis_list	pelvis_rotation	pelvis_tx	pelvis_ty	pelvis_tz	hip_flexion_r	hip_adduction_r	hip_rotation_r	knee_angle_r	knee_angle_r_beta	ankle_angle_r	subtalar_angle_r	mtp_angle_r	hip_flexion_l	hip_adduction_l	hip_rotation_l	knee_angle_l	knee_angle_l_beta	ankle_angle_l	subtalar_angle_l	mtp_angle_l	lumbar_extension	lumbar_bending	lumbar_rotation	arm_flex_r	arm_add_r	arm_rot_r	elbow_flex_r	pro_sup_r	wrist_flex_r	wrist_dev_r	arm_flex_l	arm_add_l	arm_rot_l	elbow_flex_l	pro_sup_l	wrist_flex_l	wrist_dev_l
     35.47000000	     -1.81193008	     -5.51020081	     -4.81773318	      0.96331076	      0.92532882	      0.58322281	     12.99559249	      6.73337919	    -10.11747165	     23.46266998	     23.46266998	     14.27285040	     -4.92975610	     -0.66743484	     22.62331005	    -16.16844099	     -2.68366121	     65.09878806	     65.09878806	     18.03047118	    -19.61746144	     23.70711858	    -11.28332746	      8.47049644	      0.70509371	     11.16670783	    -19.31897401	    -20.10132396	     31.92150695	     46.06411132	      0.00000000	      0.00000000	     17.60641701	    -11.38438818	     -9.94964653	     53.50137613	     46.15269130	      0.00000000	      0.00000000
     35.48921429	     -1.48484289	     -5.43206483	     -4.34953198	      0.96123978	      0.92321680	      0.58444278	     13.17868819	      6.60998842	    -10.14118492	     24.97232700	     24.97232700	     15.09595325	     -5.85294443	     -1.08814774	     23.93338223	    -16.05520368	     -2.13452145	     64.95492395	     64.95492395	     18.06153860	    -19.62209584	     23.66867171	    -11.60510573	      8.13143320	      0.33327214	     13.56184344	    -18.88476567	    -20.15998002	     32.99663424	     46.04329377	      0.00000000	      0.00000000	     15.11103183	    -10.86978672	     -9.41201906	     51.07164065	     46.07409823	      0.00000000	      0.00000000
     35.50842857	     -1.15530035	     -5.41099989	     -3.84292255	      0.95915696	      0.92107904	      0.58565309	     13.26952489	      6.61936663	    -10.01184287	     26.31392144	     26.31392144	     15.87886784	     -7.08739561	     -1.31011125	     25.22042091	    -16.01153796	     -1.64380641	     64.60421633	     64.60421633	     18.05787855	    -19.62427233	     23.70372309	    -11.95376566	      7.84623826	     -0.03616585	     16.02658644	    -18.38657043	    -20.11301653	     34.06339803	     46.01598306	      0.00000000	      0.00000000	     12.77616549	    -10.34354027	     -8.69711987	     48.02422232	     45.97719256	      0.00000000	      0.00000000
     35.52764286	     -0.84974021	     -5.41223101	     -3.31612935	      0.95713041	      0.91897272	      0.58677922	     13.30554804	      6.68593163	     -9.86789469	     27.50895379	     27.50895379	     16.60022570	     -8.32556433	     -1.34820838	     26.43042002	    -15.94949938	     -1.17241634	     63.94749218	     63.94749218	     18.01683443	    -19.63424502	     23.77760969	    -12.22248109	      7.60495506	     -0.43775937	     18.52626032	    -17.82865974	    -19.95956904	     35.09253174	     45.98428019	      0.00000000	      0.00000000	     10.70383092	     -9.81408516	     -7.76072933	     44.20622467	     45.85981975	      0.00000000	      0.00000000
     35.54685714	     -0.52019436	     -5.48220873	     -2.80554691	      0.95514335	      0.91713153	      0.58779729	     13.21022767	      6.81104877	     -9.84353624	     28.52990894	     28.52990894	     17.43321054	     -9.21789205	     -0.81395244	     27.49788048	    -15.97503487	     -0.83497163	     62.99202579	     62.99202579	     17.88774370	    -19.63422436	     23.82540144	    -12.48751044	      7.43695790	      0.15099225	     20.51056404	    -17.87554157	    -19.57797514	     35.58756403	     45.96780240	      0.00000000	      0.00000000	     10.19103017	     -8.99237277	     -5.68570464	     37.81313513	     45.68339976	      0.00000000	      0.00000000
     35.56607143	     -0.26941952	     -5.50559069	     -2.25191054	      0.95322191	      0.91535413	      0.58854114	     13.14350593	      6.86001679	     -9.92926337	     29.42613289	     29.42613289	     18.03131319	    -10.05619608	     -0.89042658	     28.51922565	    -15.90590395	     -0.57084673	     61.71268668	     61.71268668	     17.71047710	    -19.63293290	     23.83089683	    -12.75122411	      7.21972628	     -0.16415583	     22.77559252	    -17.30493912	    -19.46489912	     37.21541378	     45.91198247	      0.00000000	      0.00000000	      7.87745820	     -8.49118649	     -5.07005183	     35.43105878	     45.58890669	      0.00000000	      0.00000000
     35.58528571	     -0.07716935	     -5.59102159	     -1.69244791	      0.95138455	      0.91401136	      0.58911188	     12.94336849	      6.98765849	    -10.07602719	     29.94788840	     29.94788840	     18.53398099	    -10.68393516	     -0.76800431	     29.42119415	    -15.85514744	     -0.35592351	     60.05255715	     60.05255715	     17.39606018	    -19.62445929	     23.68959593	    -12.91775630	      7.08312217	     -0.28568006	     24.85115609	    -16.85517394	    -19.13449541	     38.87319362	     45.84369101	      0.00000000	      0.00000000	      5.96007081	     -7.96977353	     -4.18077568	     32.49826482	     45.46534998	      0.00000000	      0.00000000
     35.60450000	      0.06658422	     -5.60542119	     -1.07323495	      0.94971710	      0.91313478	      0.58928166	     12.65484145	      7.00782154	    -10.32898248	     30.21983505	     30.21983505	     18.95560646	    -11.14760328	     -0.64470057	     30.17463928	    -15.63736725	     -0.20288002	     58.03769801	     58.03769801	     17.03232104	    -19.61005244	     23.40552386	    -12.98670045	      6.87650470	     -0.34588525	     26.77927070	    -16.41749050	    -18.71719828	     40.71317879	     45.76363625	      0.00000000	      0.00000000	      4.02875959	     -7.49886542	     -3.34196285	     29.90159464	     45.33744348	      0.00000000	      0.00000000
     35.62371429	      0.15430724	     -5.60871851	     -0.47269985	      0.94815642	      0.91287480	      0.58925755	     12.24526320	      7.01564224	    -10.62862021	     30.15931673	     30.15931673	     19.26279896	    -11.36265116	     -0.54363761	     30.74923480	    -15.32527298	     -0.05900544	     55.64437017	     55.64437017	     16.48149296	    -19.57549964	     23.09643659	    -13.01696393	      6.64098473	     -0.27359839	     28.50322666	    -16.13805902	    -18.28925645	     42.62357331	     45.68060808	      0.00000000	      0.00000000	      2.09136575	     -7.06308461	     -2.64803836	     27.90346057	     45.21770364	      0.00000000	      0.00000000
     35.64292857	      0.12593759	     -5.57304039	      0.15451832	      0.94670277	      0.91311267	      0.58887820	     11.76507471	      6.96755385	    -11.02938872	     29.73753893	     29.73753893	     19.45921852	    -11.36898007	     -0.44066736	     31.23220279	    -14.85016985	      0.13978986	     52.96525154	     52.96525154	     15.77273398	    -19.52162260	     22.47015598	    -12.90452344	      6.40491217	     -0.17458948	     30.06922322	    -15.93611535	    -17.73249872	     44.91102992	     45.57839363	      0.00000000	      0.00000000	      0.12268771	     -6.69368885	     -1.94290749	     26.22941530	     45.08776270	      0.00000000	      0.00000000
     35.66214286	     -0.00187405	     -5.52451754	      0.78277421	      0.94531668	      0.91383585	      0.58812255	     11.24509801	      6.86218735	    -11.58183486	     29.05048629	     29.05048629	     19.46936812	    -11.15285041	     -0.39208566	     31.58809225	    -14.25235837	      0.41855876	     50.01667250	     50.01667250	     14.74772343	    -19.45767650	     21.10909057	    -12.70755687	      6.18010694	      0.04872180	     31.20692773	    -15.92476834	    -16.81457326	     48.03628949	     45.43183570	      0.00000000	      0.00000000	     -1.86177920	     -6.46667664	     -1.02556359	     24.98162027	     44.91754543	      0.00000000	      0.00000000
     35.68135714	     -0.16616630	     -5.38782895	      1.39553612	      0.94415317	      0.91504595	      0.58714536	     10.55659744	      6.71454266	    -12.01231211	     27.99359764	     27.99359764	     19.27184355	    -10.95123092	     -0.82350325	     31.68071690	    -13.49431171	      0.74716787	     46.78762910	     46.78762910	     13.45654429	    -19.32002312	     18.99845057	    -12.46500640	      5.83751401	      1.01810881	     31.27854491	    -16.92445168	    -15.38525920	     52.59559026	     45.33071163	      0.00000000	      0.00000000	     -3.85031540	     -7.05347643	      5.38624517	     25.08310904	     44.06953565	      0.00000000	      0.00000000
     35.70057143	     -0.35492965	     -5.22066294	      2.01521418	      0.94305832	      0.91667620	      0.58586009	      9.75301156	      6.53071026	    -12.52764615	     26.69945729	     26.69945729	     19.15389684	    -10.52725410	     -0.64751574	     31.67834831	    -12.57856398	      1.36218791	     43.62239291	     43.62239291	     12.76353744	    -19.10301235	     18.77543247	    -12.17765720	      5.44028682	      1.12658377	     32.91421477	    -16.74809326	    -15.26012185	     54.35262508	     45.27481529	      0.00000000	      0.00000000	     -5.88572443	     -6.96095730	      5.44134292	     24.60030709	     44.04370183	      0.00000000	      0.00000000
     35.71978571	     -0.62857089	     -5.08722132	      2.61089132	      0.94208730	      0.91820114	      0.58432499	      8.98807838	      6.33852952	    -13.20506908	     25.32869728	     25.32869728	     18.86029794	     -9.82900384	     -1.13136624	     31.50781350	    -11.79084889	      1.85929442	     40.24505558	     40.24505558	     10.90793891	    -18.76485125	     15.08466427	    -11.87652949	      5.13930790	      1.42666983	     33.64129989	    -17.18053703	    -14.31236552	     58.48284160	     45.12174918	      0.00000000	      0.00000000	     -8.21438303	     -7.07226989	      5.47485137	     25.71453129	     44.08305827	      0.00000000	      0.00000000
     35.73900000	     -0.89837920	     -4.96292738	      3.21056858	      0.94123560	      0.91979414	      0.58258269	      8.12576269	      6.18677112	    -13.89066324	     23.79829582	     23.79829582	     18.58376080	     -9.09700793	     -1.31335797	     31.30952832	    -10.99525563	      2.53560683	     37.18105873	     37.18105873	      9.96095441	    -18.11627424	     13.65737822	    -11.54368038	      4.82951443	      1.50634054	     34.98858380	    -17.21965646	    -13.86900300	     61.11354255	     45.03950345	      0.00000000	      0.00000000	    -10.13716308	     -7.11204802	      5.60426259	     25.74846435	     44.08756811	      0.00000000	      0.00000000
     35.75821429	     -1.17621493	     -4.87267293	      3.74661740	      0.94050490	      0.92116463	      0.58076471	      7.26869671	      6.09899106	    -14.47599480	     22.27087727	     22.27087727	     18.26037590	     -8.39904377	     -1.64494366	     31.00070645	    -10.36046794	      3.07911831	     34.25511153	     34.25511153	      8.97928406	    -17.15726539	     11.74634112	    -11.23999572	      4.54249821	      1.84972043	     36.02682550	    -17.59535012	    -13.27019550	     64.12514785	     44.94641616	      0.00000000	      0.00000000	    -11.94625285	     -7.27413872	      5.57532885	     26.40514659	     44.13220815	      0.00000000	      0.00000000
     35.77742857	     -1.39235119	     -4.79456394	      4.23235871	      0.93987393	      0.92240140	      0.57885331	      6.36822178	      6.06868097	    -14.87137918	     20.79037962	     20.79037962	     18.00786986	     -7.85341689	     -1.51838722	     30.61517947	     -9.83492384	      3.53658999	     31.71372741	     31.71372741	      8.76277822	    -15.77899441	     11.42079782	    -11.01005099	      4.23738190	      2.08993519	     37.53776525	    -17.71726077	    -13.08215723	     65.85026890	     44.89770323	      0.00000000	      0.00000000	    -13.33986702	     -7.36103567	      5.54164079	     26.34238824	     44.13904097	      0.00000000	      0.00000000
